<svg xmlns="http://www.w3.org/2000/svg" width="1536" height="617" viewBox="0 0 1536 617"><rect width="100%" height="100%" fill="#DDDDDD"/><path fill="#999999" d="M373.575 356.92h23.4v16.65h-72v-16.65h26.37v-75.87q0-4.5.27-9.27l-18.72 15.66q-1.62 1.26-3.19 1.58-1.58.31-2.98.04-1.39-.27-2.47-.94-1.08-.68-1.62-1.49l-7.02-9.63 39.69-33.75h18.27v113.67Zm75.78-93.33-4.59 27.09q4.32-.9 8.28-1.3 3.96-.41 7.65-.41 10.26 0 18.09 3.06t13.14 8.46q5.31 5.4 8.01 12.65 2.7 7.24 2.7 15.61 0 10.35-3.65 18.9-3.64 8.55-10.12 14.63-6.48 6.07-15.34 9.4-8.87 3.33-19.31 3.33-6.12 0-11.61-1.26-5.49-1.26-10.31-3.37-4.81-2.12-8.9-4.86-4.1-2.75-7.34-5.81l6.84-9.45q2.16-3.06 5.67-3.06 2.25 0 4.59 1.44t5.36 3.15q3.01 1.71 7.1 3.15 4.1 1.44 9.86 1.44 6.12 0 10.8-1.98 4.68-1.98 7.78-5.53 3.11-3.56 4.68-8.46 1.58-4.91 1.58-10.67 0-10.62-6.16-16.6-6.17-5.99-18.23-5.99-9.27 0-18.99 3.42l-13.86-3.96 10.8-63.18h64.26v9.45q0 4.77-2.97 7.74-2.97 2.97-10.08 2.97h-35.73Zm84.69 18.18-11.7-2.07q1.35-9.36 5.22-16.43 3.87-7.06 9.67-11.78 5.81-4.73 13.32-7.11 7.52-2.39 16.16-2.39 9 0 16.24 2.57 7.25 2.56 12.38 7.1 5.13 4.55 7.87 10.67 2.75 6.12 2.75 13.23 0 6.21-1.4 10.93-1.39 4.73-4 8.24-2.61 3.51-6.48 5.94-3.87 2.43-8.73 4.05 11.7 3.69 17.46 11.25 5.76 7.56 5.76 18.99 0 9.72-3.6 17.19-3.6 7.47-9.72 12.55-6.12 5.09-14.18 7.7-8.05 2.61-17.05 2.61-9.81 0-17.1-2.25-7.29-2.25-12.69-6.66-5.4-4.41-9.18-10.8-3.78-6.39-6.48-14.76l9.81-4.05q3.87-1.62 7.24-.85 3.38.76 4.91 3.64 1.62 3.15 3.55 6.21 1.94 3.06 4.64 5.45 2.7 2.38 6.34 3.86 3.65 1.49 8.69 1.49 5.67 0 9.9-1.85 4.23-1.84 7.06-4.81 2.84-2.97 4.23-6.61 1.4-3.65 1.4-7.34 0-4.68-.99-8.5-.99-3.83-4.14-6.53-3.15-2.7-9.05-4.23-5.89-1.53-15.79-1.53v-15.84q8.19-.09 13.59-1.53t8.59-4q3.2-2.57 4.46-6.17 1.26-3.6 1.26-7.92 0-9.18-5.13-13.95t-13.68-4.77q-3.96 0-7.29 1.13-3.33 1.12-5.99 3.15-2.65 2.02-4.45 4.72-1.8 2.7-2.7 5.94-1.53 4.14-4.01 5.49-2.47 1.35-6.97.63Zm168.57-38.34-38.61 47.25-4.5 5.58q3.78-1.89 8.14-2.92 4.37-1.04 9.41-1.04 7.38 0 14.35 2.43 6.98 2.43 12.29 7.34 5.31 4.9 8.55 12.19 3.24 7.29 3.24 17.01 0 9.09-3.33 17.06-3.33 7.96-9.36 13.9-6.03 5.94-14.54 9.36-8.5 3.42-18.76 3.42-10.44 0-18.72-3.33t-14.13-9.32q-5.85-5.98-8.96-14.4-3.1-8.41-3.1-18.67 0-9.18 3.73-18.85 3.74-9.68 11.57-20.12l31.05-41.67q1.62-2.16 4.72-3.69 3.11-1.53 7.16-1.53h19.8Zm-33.57 113.4q5.31 0 9.76-1.8 4.46-1.8 7.65-5.04 3.2-3.24 5-7.6 1.8-4.37 1.8-9.5 0-5.58-1.71-10.03-1.71-4.46-4.86-7.56-3.15-3.11-7.56-4.73-4.41-1.62-9.72-1.62-5.31 0-9.63 1.8-4.32 1.8-7.38 5-3.06 3.19-4.77 7.55-1.71 4.37-1.71 9.41 0 5.4 1.48 9.86 1.49 4.45 4.41 7.6 2.93 3.15 7.25 4.9 4.32 1.76 9.99 1.76Zm190.8-13.05-11.79 11.61-30.51-30.51-30.78 30.69-11.79-11.61 30.78-30.87-29.34-29.34 11.7-11.7 29.34 29.34 29.16-29.16 11.88 11.7-29.25 29.25 30.6 30.6Zm139.05-100.35-38.61 47.25-4.5 5.58q3.78-1.89 8.14-2.92 4.37-1.04 9.41-1.04 7.38 0 14.35 2.43 6.98 2.43 12.29 7.34 5.31 4.9 8.55 12.19 3.24 7.29 3.24 17.01 0 9.09-3.33 17.06-3.33 7.96-9.36 13.9-6.03 5.94-14.54 9.36-8.5 3.42-18.76 3.42-10.44 0-18.72-3.33t-14.13-9.32q-5.85-5.98-8.96-14.4-3.1-8.41-3.1-18.67 0-9.18 3.73-18.85 3.74-9.68 11.57-20.12l31.05-41.67q1.62-2.16 4.72-3.69 3.11-1.53 7.16-1.53h19.8Zm-33.57 113.4q5.31 0 9.76-1.8 4.46-1.8 7.65-5.04 3.2-3.24 5-7.6 1.8-4.37 1.8-9.5 0-5.58-1.71-10.03-1.71-4.46-4.86-7.56-3.15-3.11-7.56-4.73-4.41-1.62-9.72-1.62-5.31 0-9.63 1.8-4.32 1.8-7.38 5-3.06 3.19-4.77 7.55-1.71 4.37-1.71 9.41 0 5.4 1.48 9.86 1.49 4.45 4.41 7.6 2.93 3.15 7.25 4.9 4.32 1.76 9.99 1.76Zm122.13.09h23.4v16.65h-72v-16.65h26.37v-75.87q0-4.5.27-9.27l-18.72 15.66q-1.62 1.26-3.2 1.58-1.57.31-2.97.04-1.39-.27-2.47-.94-1.08-.68-1.62-1.49l-7.02-9.63 39.69-33.75h18.27v113.67Zm43.02-113.49h89.91v9.63q0 4.32-.9 6.98-.9 2.65-1.8 4.45l-49.32 101.52q-1.53 3.15-4.32 5.35-2.79 2.21-7.47 2.21h-16.11l50.31-99.45q1.71-3.06 3.37-5.63 1.67-2.56 3.74-4.9h-62.28q-2.07 0-3.6-1.53-1.53-1.53-1.53-3.6v-15.03Z"/></svg>