<svg xmlns="http://www.w3.org/2000/svg" width="768" height="309" viewBox="0 0 768 309"><rect width="100%" height="100%" fill="#DDDDDD"/><path fill="#999999" d="M157.155 117.62h50.95v5.46q0 2.45-.51 3.95-.51 1.51-1.02 2.53l-27.95 57.53q-.87 1.78-2.45 3.03-1.58 1.25-4.23 1.25h-9.13l28.51-56.36q.97-1.73 1.91-3.18.94-1.46 2.12-2.78h-35.3q-1.17 0-2.04-.87-.86-.87-.86-2.04v-8.52Zm102.91 0-21.87 26.78-2.55 3.16q2.14-1.07 4.61-1.66 2.47-.58 5.33-.58 4.18 0 8.14 1.37 3.95 1.38 6.96 4.16 3.01 2.78 4.84 6.91 1.84 4.13 1.84 9.64 0 5.15-1.89 9.66-1.89 4.52-5.3 7.88-3.42 3.37-8.24 5.31-4.82 1.94-10.63 1.94-5.92 0-10.61-1.89-4.69-1.89-8.01-5.28-3.31-3.39-5.07-8.16-1.76-4.77-1.76-10.58 0-5.2 2.11-10.69 2.12-5.48 6.56-11.4l17.59-23.61q.92-1.22 2.68-2.09 1.76-.87 4.05-.87h11.22Zm-19.02 64.26q3.01 0 5.54-1.02 2.52-1.02 4.33-2.85 1.81-1.84 2.83-4.31 1.02-2.48 1.02-5.38 0-3.16-.97-5.69-.97-2.52-2.75-4.28-1.79-1.76-4.29-2.68-2.5-.92-5.5-.92-3.01 0-5.46 1.02t-4.18 2.83q-1.74 1.81-2.71 4.29-.97 2.47-.97 5.33 0 3.06.85 5.58.84 2.52 2.5 4.31 1.65 1.78 4.1 2.78 2.45.99 5.66.99Zm59.26.46q3.11 0 5.46-.89t3.95-2.47q1.61-1.58 2.43-3.78.81-2.19.81-4.74 0-6.07-3.36-9.18-3.37-3.11-9.29-3.11-5.91 0-9.28 3.11-3.36 3.11-3.36 9.18 0 2.55.81 4.74.82 2.2 2.42 3.78 1.61 1.58 3.96 2.47 2.34.89 5.45.89Zm0-56.05q-2.8 0-4.84.87t-3.39 2.32q-1.35 1.45-1.99 3.34-.64 1.89-.64 3.98 0 2.19.54 4.26.53 2.06 1.81 3.67 1.27 1.61 3.36 2.58 2.09.96 5.15.96 3.06 0 5.15-.96 2.1-.97 3.37-2.58 1.28-1.61 1.81-3.67.54-2.07.54-4.26 0-2.09-.67-3.98-.66-1.89-1.99-3.34-1.32-1.45-3.36-2.32-2.04-.87-4.85-.87Zm12.45 26.63q6.73 2.19 9.94 6.7 3.22 4.52 3.22 11.04 0 4.9-1.87 8.88-1.86 3.98-5.22 6.78-3.37 2.81-8.09 4.34-4.71 1.53-10.43 1.53-5.71 0-10.43-1.53-4.71-1.53-8.08-4.34-3.37-2.8-5.23-6.78-1.86-3.98-1.86-8.88 0-6.52 3.21-11.04 3.22-4.51 9.95-6.7-5.36-2.25-8.03-6.38-2.68-4.13-2.68-9.94 0-4.19 1.71-7.81 1.71-3.62 4.77-6.3 3.06-2.67 7.32-4.18 4.25-1.5 9.35-1.5t9.36 1.5q4.26 1.51 7.32 4.18 3.06 2.68 4.77 6.3 1.71 3.62 1.71 7.81 0 5.81-2.68 9.94t-8.03 6.38Zm95.57 21.57-6.68 6.58-17.29-17.29-17.44 17.39-6.68-6.58 17.44-17.49-16.63-16.63 6.63-6.63 16.63 16.63 16.52-16.53 6.74 6.63-16.58 16.58 17.34 17.34Zm42.43-35.14-6.63-1.17q.77-5.31 2.96-9.31 2.19-4 5.48-6.68 3.29-2.68 7.55-4.03t9.16-1.35q5.1 0 9.2 1.45 4.11 1.45 7.01 4.03 2.91 2.58 4.47 6.04 1.55 3.47 1.55 7.5 0 3.52-.79 6.2-.79 2.67-2.27 4.66-1.48 1.99-3.67 3.37-2.19 1.38-4.95 2.29 6.63 2.1 9.9 6.38 3.26 4.28 3.26 10.76 0 5.51-2.04 9.74t-5.51 7.12q-3.46 2.88-8.03 4.36-4.56 1.48-9.66 1.48-5.56 0-9.69-1.28-4.13-1.27-7.19-3.77-3.06-2.5-5.21-6.12-2.14-3.62-3.67-8.37l5.56-2.29q2.19-.92 4.11-.49 1.91.44 2.78 2.07.91 1.78 2.01 3.52 1.1 1.73 2.63 3.08 1.53 1.35 3.59 2.2 2.07.84 4.92.84 3.22 0 5.61-1.05 2.4-1.04 4.01-2.73 1.6-1.68 2.39-3.74.79-2.07.79-4.16 0-2.65-.56-4.82-.56-2.17-2.34-3.7-1.79-1.53-5.13-2.4-3.34-.86-8.95-.86v-8.98q4.64-.05 7.7-.87 3.06-.81 4.87-2.26 1.81-1.46 2.53-3.5.71-2.04.71-4.49 0-5.2-2.91-7.9-2.9-2.7-7.75-2.7-2.24 0-4.13.63-1.89.64-3.39 1.79-1.5 1.15-2.52 2.68-1.02 1.53-1.53 3.36-.87 2.35-2.27 3.11-1.41.77-3.96.36Zm103.64 15.15q0 9.64-2.07 16.75-2.07 7.11-5.71 11.76-3.65 4.64-8.62 6.91-4.97 2.27-10.74 2.27-5.76 0-10.68-2.27t-8.54-6.91q-3.62-4.65-5.66-11.76-2.04-7.11-2.04-16.75 0-9.69 2.04-16.78 2.04-7.09 5.66-11.73 3.62-4.64 8.54-6.91 4.92-2.27 10.68-2.27 5.77 0 10.74 2.27 4.97 2.27 8.62 6.91 3.64 4.64 5.71 11.73 2.07 7.09 2.07 16.78Zm-13.01 0q0-8.01-1.17-13.26-1.18-5.26-3.14-8.37-1.96-3.11-4.51-4.36-2.55-1.25-5.31-1.25-2.7 0-5.22 1.25-2.53 1.25-4.47 4.36-1.93 3.11-3.08 8.37-1.15 5.25-1.15 13.26 0 8 1.15 13.26 1.15 5.25 3.08 8.36 1.94 3.11 4.47 4.36 2.52 1.25 5.22 1.25 2.76 0 5.31-1.25t4.51-4.36q1.96-3.11 3.14-8.36 1.17-5.26 1.17-13.26Zm32.39-14.74q0 6.17 3.18 9.41 3.19 3.24 9.06 3.24 3.06 0 5.45-.97 2.4-.97 4.03-2.66 1.63-1.68 2.48-3.97.84-2.3.84-4.95 0-3.01-.92-5.38t-2.6-4q-1.69-1.64-4.01-2.5-2.32-.87-5.07-.87-2.86 0-5.15.94-2.3.95-3.93 2.63-1.63 1.68-2.5 4-.86 2.32-.86 5.08Zm-6.18 51.61 22.9-28.61q.87-1.07 1.64-2.09.76-1.02 1.47-2.04-2.55 1.63-5.61 2.47-3.06.84-6.42.84-3.83 0-7.5-1.32-3.67-1.33-6.53-4.01-2.85-2.67-4.61-6.63-1.76-3.95-1.76-9.25 0-4.95 1.83-9.29 1.84-4.33 5.16-7.59 3.31-3.27 7.95-5.16 4.64-1.88 10.25-1.88 5.66 0 10.18 1.78 4.51 1.79 7.7 5 3.19 3.21 4.89 7.7 1.71 4.49 1.71 9.84 0 3.42-.58 6.48-.59 3.06-1.66 5.89-1.07 2.83-2.6 5.54-1.53 2.7-3.42 5.35l-16.88 24.07q-.87 1.23-2.6 2.07-1.74.84-3.93.84h-11.58Z"/></svg>