<svg xmlns="http://www.w3.org/2000/svg" width="1024" height="411" viewBox="0 0 1024 411"><rect width="100%" height="100%" fill="#DDDDDD"/><path fill="#999999" d="M250.76 237.78h15.6v11.1h-48v-11.1h17.58V187.2q0-3 .18-6.18l-12.48 10.44q-1.08.84-2.13 1.05-1.05.21-1.98.03-.93-.18-1.65-.63-.72-.45-1.08-.99l-4.68-6.42 26.46-22.5h12.18v75.78Zm89.7-32.28q0 11.34-2.43 19.71-2.43 8.37-6.72 13.83-4.29 5.46-10.14 8.13-5.85 2.67-12.63 2.67-6.78 0-12.57-2.67t-10.05-8.13q-4.26-5.46-6.66-13.83-2.4-8.37-2.4-19.71 0-11.4 2.4-19.74 2.4-8.34 6.66-13.8 4.26-5.46 10.05-8.13 5.79-2.67 12.57-2.67t12.63 2.67q5.85 2.67 10.14 8.13 4.29 5.46 6.72 13.8 2.43 8.34 2.43 19.74Zm-15.3 0q0-9.42-1.38-15.6t-3.69-9.84q-2.31-3.66-5.31-5.13-3-1.47-6.24-1.47-3.18 0-6.15 1.47t-5.25 5.13q-2.28 3.66-3.63 9.84t-1.35 15.6q0 9.42 1.35 15.6t3.63 9.84q2.28 3.66 5.25 5.13 2.97 1.47 6.15 1.47 3.24 0 6.24-1.47t5.31-5.13q2.31-3.66 3.69-9.84t1.38-15.6Zm54.9 29.58h22.26q2.4 0 3.81 1.35 1.41 1.35 1.41 3.57v8.88h-59.52v-4.92q0-1.5.63-3.15t2.01-2.97l26.34-26.4q3.3-3.36 5.91-6.42 2.61-3.06 4.35-6.06 1.74-3 2.67-6.09.93-3.09.93-6.51 0-3.12-.9-5.49t-2.55-3.99q-1.65-1.62-3.96-2.43t-5.19-.81q-2.64 0-4.89.75-2.25.75-3.99 2.1-1.74 1.35-2.94 3.15-1.2 1.8-1.8 3.96-1.02 2.76-2.64 3.66-1.62.9-4.68.42l-7.8-1.38q.9-6.24 3.48-10.95 2.58-4.71 6.45-7.86 3.87-3.15 8.88-4.74 5.01-1.59 10.77-1.59 6 0 10.98 1.77t8.52 5.01q3.54 3.24 5.52 7.8 1.98 4.56 1.98 10.14 0 4.8-1.41 8.88-1.41 4.08-3.78 7.8-2.37 3.72-5.55 7.2-3.18 3.48-6.66 7.08l-19.56 19.98q2.82-.84 5.61-1.29 2.79-.45 5.31-.45Zm49.32-18.9h26.4V187.8q0-4.02.54-8.88l-26.94 37.26Zm39.3 0h10.92v8.58q0 1.2-.78 2.07-.78.87-2.22.87h-7.92v21.18h-12.9V227.7h-36.6q-1.5 0-2.64-.93-1.14-.93-1.44-2.31l-1.56-7.5 41.1-54.9h14.04v54.12Zm106.26 12.84-7.86 7.74-20.34-20.34-20.52 20.46-7.86-7.74 20.52-20.58L519.32 189l7.8-7.8 19.56 19.56 19.44-19.44 7.92 7.8-19.5 19.5 20.4 20.4Zm51.96-12.84h26.4V187.8q0-4.02.54-8.88l-26.94 37.26Zm39.3 0h10.92v8.58q0 1.2-.78 2.07-.78.87-2.22.87h-7.92v21.18h-12.9V227.7h-36.6q-1.5 0-2.64-.93-1.14-.93-1.44-2.31l-1.56-7.5 41.1-54.9h14.04v54.12Zm60.48 21.6h15.6v11.1h-48v-11.1h17.58V187.2q0-3 .18-6.18l-12.48 10.44q-1.08.84-2.13 1.05-1.05.21-1.98.03-.93-.18-1.65-.63-.72-.45-1.08-.99l-4.68-6.42L714.5 162h12.18v75.78Zm69.6 0h15.6v11.1h-48v-11.1h17.58V187.2q0-3 .18-6.18l-12.48 10.44q-1.08.84-2.13 1.05-1.05.21-1.98.03-.93-.18-1.65-.63-.72-.45-1.08-.99l-4.68-6.42L784.1 162h12.18v75.78Z"/></svg>