<svg xmlns="http://www.w3.org/2000/svg" width="610" height="200" viewBox="0 0 610 200"><rect width="100%" height="100%" fill="#DDDDDD"/><path fill="#999999" d="m158.71 70.72-17.37 21.26-2.03 2.51q1.7-.85 3.67-1.32 1.96-.46 4.23-.46 3.32 0 6.46 1.09 3.14 1.1 5.53 3.3 2.39 2.21 3.85 5.49 1.45 3.28 1.45 7.65 0 4.1-1.49 7.68-1.5 3.58-4.22 6.26-2.71 2.67-6.54 4.21-3.82 1.54-8.44 1.54-4.7 0-8.43-1.5-3.72-1.5-6.35-4.19-2.64-2.7-4.03-6.48-1.4-3.79-1.4-8.41 0-4.13 1.68-8.48 1.68-4.35 5.2-9.05l13.98-18.75q.73-.98 2.12-1.66 1.4-.69 3.22-.69h8.91Zm-15.1 51.03q2.39 0 4.39-.81 2-.81 3.44-2.27t2.25-3.42q.81-1.97.81-4.28 0-2.51-.77-4.51-.77-2.01-2.19-3.4-1.41-1.4-3.4-2.13-1.98-.73-4.37-.73t-4.34.81q-1.94.81-3.32 2.25-1.37 1.44-2.14 3.4t-.77 4.23q0 2.43.67 4.44.66 2 1.98 3.42 1.32 1.42 3.26 2.21 1.94.79 4.5.79Zm54.95.04h10.53v7.49h-32.4v-7.49h11.87V87.65q0-2.03.12-4.18l-8.42 7.05q-.73.57-1.44.71t-1.34.02q-.62-.12-1.11-.42-.49-.31-.73-.67l-3.16-4.34 17.86-15.18h8.22v51.15ZM259.11 100q0 7.65-1.64 13.3t-4.53 9.34q-2.9 3.68-6.85 5.49-3.95 1.8-8.52 1.8-4.58 0-8.49-1.8-3.91-1.81-6.78-5.49-2.88-3.69-4.5-9.34t-1.62-13.3q0-7.7 1.62-13.33t4.5-9.31q2.87-3.69 6.78-5.49 3.91-1.8 8.49-1.8 4.57 0 8.52 1.8 3.95 1.8 6.85 5.49 2.89 3.68 4.53 9.31 1.64 5.63 1.64 13.33Zm-10.33 0q0-6.36-.93-10.53-.93-4.17-2.49-6.64-1.56-2.47-3.58-3.47-2.03-.99-4.21-.99-2.15 0-4.16.99-2 1-3.54 3.47t-2.45 6.64q-.91 4.17-.91 10.53 0 6.36.91 10.53.91 4.17 2.45 6.64 1.54 2.47 3.54 3.46 2.01 1 4.16 1 2.18 0 4.21-1 2.02-.99 3.58-3.46 1.56-2.47 2.49-6.64.93-4.17.93-10.53Zm74.65 15.87-5.31 5.23-13.73-13.73-13.85 13.81-5.31-5.22 13.86-13.9-13.21-13.2 5.27-5.26 13.2 13.2 13.12-13.12 5.35 5.26-13.16 13.16 13.77 13.77Zm48.76 4.1h15.02q1.62 0 2.58.91.95.91.95 2.41v5.99h-40.18v-3.32q0-1.01.43-2.13.42-1.11 1.35-2l17.78-17.82q2.23-2.27 3.99-4.34 1.76-2.06 2.94-4.09 1.17-2.02 1.8-4.11.63-2.08.63-4.39 0-2.11-.61-3.71t-1.72-2.69q-1.11-1.09-2.67-1.64-1.56-.55-3.51-.55-1.78 0-3.3.51-1.52.51-2.69 1.42-1.18.91-1.99 2.12-.81 1.22-1.21 2.68-.69 1.86-1.78 2.47-1.1.6-3.16.28l-5.27-.93q.61-4.21 2.35-7.39 1.74-3.18 4.36-5.31 2.61-2.12 5.99-3.2 3.38-1.07 7.27-1.07 4.05 0 7.41 1.19 3.36 1.2 5.75 3.39 2.39 2.18 3.73 5.26 1.33 3.08 1.33 6.85 0 3.23-.95 5.99-.95 2.75-2.55 5.26-1.6 2.51-3.74 4.86-2.15 2.35-4.5 4.78l-13.2 13.49q1.9-.57 3.78-.87 1.89-.3 3.59-.3ZM439.42 100q0 7.65-1.64 13.3t-4.54 9.34q-2.89 3.68-6.84 5.49-3.95 1.8-8.53 1.8-4.57 0-8.48-1.8-3.91-1.81-6.79-5.49-2.87-3.69-4.49-9.34t-1.62-13.3q0-7.7 1.62-13.33t4.49-9.31q2.88-3.69 6.79-5.49 3.91-1.8 8.48-1.8 4.58 0 8.53 1.8 3.95 1.8 6.84 5.49 2.9 3.68 4.54 9.31 1.64 5.63 1.64 13.33Zm-10.33 0q0-6.36-.93-10.53-.93-4.17-2.49-6.64-1.56-2.47-3.59-3.47-2.02-.99-4.21-.99-2.14 0-4.15.99-2 1-3.54 3.47t-2.45 6.64q-.91 4.17-.91 10.53 0 6.36.91 10.53.91 4.17 2.45 6.64 1.54 2.47 3.54 3.46 2.01 1 4.15 1 2.19 0 4.21-1 2.03-.99 3.59-3.46 1.56-2.47 2.49-6.64.93-4.17.93-10.53Zm57.31 0q0 7.65-1.64 13.3t-4.54 9.34q-2.89 3.68-6.84 5.49-3.95 1.8-8.53 1.8-4.57 0-8.48-1.8-3.91-1.81-6.79-5.49-2.87-3.69-4.49-9.34t-1.62-13.3q0-7.7 1.62-13.33t4.49-9.31q2.88-3.69 6.79-5.49 3.91-1.8 8.48-1.8 4.58 0 8.53 1.8 3.95 1.8 6.84 5.49 2.9 3.68 4.54 9.31 1.64 5.63 1.64 13.33Zm-10.33 0q0-6.36-.93-10.53-.93-4.17-2.49-6.64-1.56-2.47-3.59-3.47-2.02-.99-4.21-.99-2.14 0-4.15.99-2 1-3.54 3.47t-2.45 6.64q-.91 4.17-.91 10.53 0 6.36.91 10.53.91 4.17 2.45 6.64 1.54 2.47 3.54 3.46 2.01 1 4.15 1 2.19 0 4.21-1 2.03-.99 3.59-3.46 1.56-2.47 2.49-6.64.93-4.17.93-10.53Z"/></svg>