<svg xmlns="http://www.w3.org/2000/svg" width="175" height="265" viewBox="0 0 175 265"><rect width="100%" height="100%" fill="#DDDDDD"/><path fill="#999999" d="M42.13 138.955h3.12v2.22h-9.6v-2.22h3.51v-10.12q0-.6.04-1.23l-2.5 2.09q-.21.16-.42.21-.21.04-.4 0-.18-.03-.33-.12-.14-.09-.21-.2l-.94-1.29 5.29-4.5h2.44v15.16Zm5.73-15.13h11.99v1.28q0 .58-.12.93-.12.36-.24.6l-6.57 13.53q-.21.42-.58.72-.37.29-1 .29H49.2l6.7-13.26q.23-.41.45-.75.23-.34.5-.65h-8.3q-.28 0-.48-.21-.21-.2-.21-.48v-2Zm18.29 2.69-.61 3.61q.58-.12 1.1-.18.53-.05 1.02-.05 1.37 0 2.42.41 1.04.41 1.75 1.13t1.07 1.68q.36.97.36 2.08 0 1.38-.49 2.52-.49 1.14-1.35 1.95-.86.81-2.05 1.26-1.18.44-2.57.44-.82 0-1.55-.17-.73-.16-1.37-.45-.64-.28-1.19-.64-.55-.37-.98-.78l.91-1.26q.29-.41.76-.41.3 0 .61.2.31.19.72.42.4.22.94.42.55.19 1.32.19.81 0 1.44-.27.62-.26 1.04-.73.41-.48.62-1.13.21-.66.21-1.42 0-1.42-.82-2.22-.82-.8-2.43-.8-1.24 0-2.53.46l-1.85-.53 1.44-8.42h8.57v1.26q0 .63-.4 1.03t-1.34.4h-4.77Zm26.89 10.69-1.57 1.55-4.07-4.07-4.1 4.09-1.57-1.55 4.1-4.11-3.91-3.92 1.56-1.56 3.91 3.92 3.89-3.89 1.58 1.56-3.9 3.9 4.08 4.08Zm14.45 1.21h4.45q.48 0 .77.27.28.27.28.71v1.78h-11.91v-.98q0-.3.13-.63t.4-.6l5.27-5.28q.66-.67 1.18-1.28.52-.61.87-1.21t.54-1.22q.18-.62.18-1.3 0-.63-.18-1.1-.18-.48-.51-.8-.33-.32-.79-.49-.46-.16-1.04-.16-.53 0-.98.15-.45.15-.79.42-.35.27-.59.63t-.36.79q-.21.56-.53.74-.32.18-.94.08l-1.56-.28q.18-1.24.7-2.19.52-.94 1.29-1.57.77-.63 1.78-.95 1-.31 2.15-.31 1.2 0 2.2.35.99.35 1.7 1t1.1 1.56q.4.91.4 2.03 0 .96-.28 1.78-.28.81-.76 1.56-.47.74-1.11 1.44-.63.69-1.33 1.41l-3.91 4q.56-.17 1.12-.26t1.06-.09Zm18.01-14.59-5.14 6.3-.6.74q.5-.25 1.08-.39.58-.14 1.26-.14.98 0 1.91.33.93.32 1.64.98.71.65 1.14 1.62.43.97.43 2.27 0 1.21-.44 2.27-.45 1.07-1.25 1.86-.81.79-1.94 1.25-1.13.45-2.5.45-1.39 0-2.5-.44-1.1-.45-1.88-1.24-.78-.8-1.2-1.92-.41-1.13-.41-2.49 0-1.23.5-2.52t1.54-2.68l4.14-5.56q.22-.28.63-.49.41-.2.95-.2h2.64Zm-4.47 15.12q.71 0 1.3-.24.59-.24 1.02-.67.43-.44.67-1.02.24-.58.24-1.26 0-.75-.23-1.34-.23-.6-.65-1.01-.42-.41-1.01-.63-.59-.22-1.29-.22-.71 0-1.29.24-.57.24-.98.67-.41.43-.64 1.01-.23.58-.23 1.25 0 .72.2 1.32.2.59.59 1.01.39.42.97.65.57.24 1.33.24Zm12.47-12.43-.62 3.61q.58-.12 1.11-.18.53-.05 1.02-.05 1.37 0 2.41.41t1.75 1.13q.71.72 1.07 1.68.36.97.36 2.08 0 1.38-.49 2.52-.48 1.14-1.35 1.95-.86.81-2.04 1.26-1.18.44-2.58.44-.81 0-1.54-.17-.74-.16-1.38-.45-.64-.28-1.19-.64-.54-.37-.97-.78l.91-1.26q.29-.41.75-.41.3 0 .62.2.31.19.71.42.4.22.95.42.54.19 1.31.19.82 0 1.44-.27.63-.26 1.04-.73.41-.48.62-1.13.21-.66.21-1.42 0-1.42-.82-2.22-.82-.8-2.43-.8-1.23 0-2.53.46l-1.85-.53 1.44-8.42H140v1.26q0 .63-.4 1.03-.39.4-1.34.4h-4.76Z"/></svg>