<svg xmlns="http://www.w3.org/2000/svg" width="160" height="40" viewBox="0 0 160 40"><rect width="100%" height="100%" fill="#DDDDDD"/><path fill="#999999" d="M47.685 25.38h2.6v1.85h-8v-1.85h2.93v-8.43q0-.5.03-1.03l-2.08 1.74q-.18.14-.35.18-.18.03-.33 0-.16-.03-.28-.11-.12-.07-.18-.16l-.78-1.07 4.41-3.75h2.03v12.63Zm13.36-12.61-4.29 5.25-.5.62q.42-.21.91-.33.48-.11 1.04-.11.82 0 1.6.27.77.27 1.36.81.59.55.95 1.36t.36 1.89q0 1.01-.37 1.89-.37.89-1.04 1.55t-1.61 1.04q-.95.38-2.09.38-1.16 0-2.08-.37-.92-.37-1.57-1.04-.65-.66-.99-1.6-.35-.93-.35-2.07 0-1.02.42-2.1.41-1.07 1.28-2.23l3.45-4.63q.18-.24.53-.41.34-.17.79-.17h2.2Zm-3.73 12.6q.59 0 1.09-.2.49-.2.85-.56.35-.36.55-.84.2-.49.2-1.06 0-.62-.19-1.11-.19-.5-.54-.85-.35-.34-.84-.52t-1.08-.18q-.59 0-1.07.2-.48.2-.82.56-.34.35-.53.84-.19.48-.19 1.04 0 .6.17 1.09.16.5.49.85.32.35.8.54.48.2 1.11.2ZM74.235 20q0 1.89-.4 3.28-.41 1.4-1.12 2.31-.72.91-1.69 1.35-.98.45-2.11.45t-2.09-.45q-.97-.44-1.68-1.35-.71-.91-1.11-2.31-.4-1.39-.4-3.28 0-1.9.4-3.29.4-1.39 1.11-2.3.71-.91 1.68-1.36.96-.44 2.09-.44t2.11.44q.97.45 1.69 1.36.71.91 1.12 2.3.4 1.39.4 3.29Zm-2.55 0q0-1.57-.23-2.6t-.61-1.64q-.39-.61-.89-.86-.5-.24-1.04-.24-.53 0-1.02.24-.5.25-.88.86t-.6 1.64q-.23 1.03-.23 2.6t.23 2.6q.22 1.03.6 1.64.38.61.88.85.49.25 1.02.25.54 0 1.04-.25.5-.24.89-.85.38-.61.61-1.64.23-1.03.23-2.6Zm18.43 3.92-1.31 1.29-3.39-3.39-3.42 3.41-1.31-1.29 3.42-3.43-3.26-3.26 1.3-1.3 3.26 3.26 3.24-3.24 1.32 1.3-3.25 3.25 3.4 3.4Zm8.66-2.14h4.4v-4.73q0-.67.09-1.48l-4.49 6.21Zm6.55 0h1.82v1.43q0 .2-.13.34-.13.15-.37.15h-1.32v3.53h-2.15V23.7h-6.1q-.25 0-.44-.16-.19-.15-.24-.38l-.26-1.25 6.85-9.15h2.34v9.02Zm13.43-1.78q0 1.89-.4 3.28-.41 1.4-1.12 2.31-.72.91-1.69 1.35-.98.45-2.11.45t-2.09-.45q-.97-.44-1.68-1.35-.71-.91-1.11-2.31-.4-1.39-.4-3.28 0-1.9.4-3.29.4-1.39 1.11-2.3.71-.91 1.68-1.36.96-.44 2.09-.44t2.11.44q.97.45 1.69 1.36.71.91 1.12 2.3.4 1.39.4 3.29Zm-2.55 0q0-1.57-.23-2.6t-.61-1.64q-.39-.61-.89-.86-.5-.24-1.04-.24-.53 0-1.02.24-.5.25-.88.86t-.6 1.64q-.23 1.03-.23 2.6t.23 2.6q.22 1.03.6 1.64.38.61.88.85.49.25 1.02.25.54 0 1.04-.25.5-.24.89-.85.38-.61.61-1.64.23-1.03.23-2.6Z"/></svg>