<svg xmlns="http://www.w3.org/2000/svg" width="100" height="40" viewBox="0 0 100 40"><rect width="100%" height="100%" fill="#DDDDDD"/><path fill="#999999" d="M24.145 24.305h2.08v1.48h-6.4v-1.48h2.35v-6.74q0-.4.02-.83l-1.66 1.39q-.15.12-.29.14-.14.03-.26.01-.13-.03-.22-.09-.1-.06-.15-.13l-.62-.85 3.53-3h1.62v10.1Zm11.96-4.3q0 1.51-.32 2.62-.33 1.12-.9 1.85-.57.73-1.35 1.08-.78.36-1.68.36-.91 0-1.68-.36-.77-.35-1.34-1.08-.57-.73-.89-1.85-.32-1.11-.32-2.62 0-1.52.32-2.64.32-1.11.89-1.84.57-.72 1.34-1.08.77-.36 1.68-.36.9 0 1.68.36.78.36 1.35 1.08.57.73.9 1.84.32 1.12.32 2.64Zm-2.04 0q0-1.26-.18-2.08-.19-.83-.49-1.32-.31-.48-.71-.68-.4-.2-.83-.2-.43 0-.82.2-.4.2-.7.68-.31.49-.49 1.32-.18.82-.18 2.08 0 1.25.18 2.08.18.82.49 1.31.3.49.7.68.39.2.82.2.43 0 .83-.2.4-.19.71-.68.3-.49.49-1.31.18-.83.18-2.08Zm11.32 0q0 1.51-.32 2.62-.33 1.12-.9 1.85-.57.73-1.35 1.08-.78.36-1.68.36-.91 0-1.68-.36-.77-.35-1.34-1.08-.57-.73-.89-1.85-.32-1.11-.32-2.62 0-1.52.32-2.64.32-1.11.89-1.84.57-.72 1.34-1.08.77-.36 1.68-.36.9 0 1.68.36.78.36 1.35 1.08.57.73.9 1.84.32 1.12.32 2.64Zm-2.04 0q0-1.26-.18-2.08-.19-.83-.49-1.32-.31-.48-.71-.68-.4-.2-.83-.2-.43 0-.82.2-.4.2-.7.68-.31.49-.49 1.32-.18.82-.18 2.08 0 1.25.18 2.08.18.82.49 1.31.3.49.7.68.39.2.82.2.43 0 .83-.2.4-.19.71-.68.3-.49.49-1.31.18-.83.18-2.08Zm14.75 3.13-1.05 1.03-2.71-2.71-2.74 2.73-1.05-1.03 2.74-2.75-2.61-2.6 1.04-1.04 2.61 2.6 2.59-2.59 1.06 1.04-2.6 2.6 2.72 2.72Zm6.92-1.71h3.52v-3.78q0-.54.08-1.19l-3.6 4.97Zm5.24 0h1.46v1.14q0 .16-.1.28-.11.12-.3.12h-1.06v2.82h-1.72v-2.82h-4.88q-.2 0-.35-.13-.15-.12-.19-.31l-.21-1 5.48-7.32h1.87v7.22Zm10.75-1.42q0 1.51-.33 2.62-.32 1.12-.89 1.85-.57.73-1.35 1.08-.78.36-1.69.36-.9 0-1.67-.36-.78-.35-1.34-1.08-.57-.73-.89-1.85-.32-1.11-.32-2.62 0-1.52.32-2.64.32-1.11.89-1.84.56-.72 1.34-1.08.77-.36 1.67-.36.91 0 1.69.36.78.36 1.35 1.08.57.73.89 1.84.33 1.12.33 2.64Zm-2.04 0q0-1.26-.19-2.08-.18-.83-.49-1.32-.31-.48-.71-.68-.4-.2-.83-.2-.42 0-.82.2-.39.2-.7.68-.3.49-.48 1.32-.18.82-.18 2.08 0 1.25.18 2.08.18.82.48 1.31.31.49.7.68.4.2.82.2.43 0 .83-.2.4-.19.71-.68.31-.49.49-1.31.19-.83.19-2.08Z"/></svg>